<mxfile host="65bd71144e">
    <diagram id="c71XOAweSgaU27A3IOJQ" name="Page-1">
        <mxGraphModel dx="4140" dy="2977" grid="1" gridSize="10" guides="1" tooltips="1" connect="1" arrows="1" fold="1" page="1" pageScale="1" pageWidth="850" pageHeight="1100" math="0" shadow="0">
            <root>
                <mxCell id="0"/>
                <mxCell id="1" parent="0"/>
                <mxCell id="20" value="" style="ellipse;html=1;shape=endState;fillColor=#000000;strokeColor=#ff0000;rounded=0;" parent="1" vertex="1">
                    <mxGeometry x="1025" y="2000" width="30" height="30" as="geometry"/>
                </mxCell>
                <mxCell id="128" style="edgeStyle=none;html=1;exitX=0.5;exitY=1;exitDx=0;exitDy=0;entryX=0.5;entryY=0;entryDx=0;entryDy=0;" parent="1" source="54" target="72" edge="1">
                    <mxGeometry relative="1" as="geometry"/>
                </mxCell>
                <mxCell id="54" value="" style="ellipse;html=1;shape=startState;fillColor=#000000;strokeColor=#ff0000;rounded=0;" parent="1" vertex="1">
                    <mxGeometry x="1035" y="30" width="30" height="30" as="geometry"/>
                </mxCell>
                <mxCell id="131" style="edgeStyle=none;html=1;exitX=0.5;exitY=1;exitDx=0;exitDy=0;entryX=0.5;entryY=0;entryDx=0;entryDy=0;" parent="1" source="60" target="62" edge="1">
                    <mxGeometry relative="1" as="geometry">
                        <Array as="points">
                            <mxPoint x="1200" y="300"/>
                            <mxPoint x="1590" y="300"/>
                        </Array>
                    </mxGeometry>
                </mxCell>
                <mxCell id="60" value="Login" style="rounded=0;whiteSpace=wrap;html=1;arcSize=40;fontColor=#000000;fillColor=#ffffc0;strokeColor=#ff0000;" parent="1" vertex="1">
                    <mxGeometry x="1140" y="240" width="120" height="40" as="geometry"/>
                </mxCell>
                <mxCell id="64" style="edgeStyle=none;html=1;exitX=0.5;exitY=1;exitDx=0;exitDy=0;entryX=0.5;entryY=0;entryDx=0;entryDy=0;" parent="1" source="62" target="63" edge="1">
                    <mxGeometry relative="1" as="geometry"/>
                </mxCell>
                <mxCell id="62" value="Authentication" style="rounded=0;whiteSpace=wrap;html=1;arcSize=40;fontColor=#000000;fillColor=#ffffc0;strokeColor=#ff0000;" parent="1" vertex="1">
                    <mxGeometry x="1530" y="320" width="120" height="40" as="geometry"/>
                </mxCell>
                <mxCell id="79" style="edgeStyle=none;html=1;exitX=0.5;exitY=1;exitDx=0;exitDy=0;entryX=0.5;entryY=0;entryDx=0;entryDy=0;" parent="1" source="63" target="81" edge="1">
                    <mxGeometry relative="1" as="geometry">
                        <mxPoint x="2400" y="640" as="targetPoint"/>
                        <Array as="points">
                            <mxPoint x="1590" y="530"/>
                            <mxPoint x="1040" y="540"/>
                        </Array>
                    </mxGeometry>
                </mxCell>
                <mxCell id="115" style="edgeStyle=none;html=1;exitX=1;exitY=0.5;exitDx=0;exitDy=0;entryX=1;entryY=0.5;entryDx=0;entryDy=0;" parent="1" source="63" target="60" edge="1">
                    <mxGeometry relative="1" as="geometry">
                        <mxPoint x="1450" y="428.719970703125" as="targetPoint"/>
                        <Array as="points">
                            <mxPoint x="1750" y="475"/>
                            <mxPoint x="1750" y="260"/>
                        </Array>
                    </mxGeometry>
                </mxCell>
                <mxCell id="63" value="Check If Valid" style="rhombus;whiteSpace=wrap;html=1;fontColor=#000000;fillColor=#ffffc0;strokeColor=#ff0000;rounded=0;" parent="1" vertex="1">
                    <mxGeometry x="1535" y="450" width="110" height="50" as="geometry"/>
                </mxCell>
                <mxCell id="67" value="Authentication&amp;nbsp;&lt;br&gt;Unsuccessfull" style="text;html=1;strokeColor=none;fillColor=none;align=center;verticalAlign=middle;whiteSpace=wrap;rounded=0;" parent="1" vertex="1">
                    <mxGeometry x="1640" y="430" width="100" height="30" as="geometry"/>
                </mxCell>
                <mxCell id="70" value="Authentication&amp;nbsp;&lt;br&gt;Sucessfull" style="text;html=1;strokeColor=none;fillColor=none;align=center;verticalAlign=middle;whiteSpace=wrap;rounded=0;" parent="1" vertex="1">
                    <mxGeometry x="1435" y="490" width="100" height="30" as="geometry"/>
                </mxCell>
                <mxCell id="118" style="edgeStyle=none;html=1;exitX=1;exitY=0.5;exitDx=0;exitDy=0;entryX=0.5;entryY=0;entryDx=0;entryDy=0;" parent="1" source="72" target="60" edge="1">
                    <mxGeometry relative="1" as="geometry">
                        <Array as="points">
                            <mxPoint x="1200" y="155"/>
                        </Array>
                    </mxGeometry>
                </mxCell>
                <mxCell id="119" style="edgeStyle=none;html=1;exitX=0;exitY=0.5;exitDx=0;exitDy=0;entryX=0.5;entryY=0;entryDx=0;entryDy=0;" parent="1" source="72" target="73" edge="1">
                    <mxGeometry relative="1" as="geometry">
                        <Array as="points">
                            <mxPoint x="950" y="155"/>
                        </Array>
                    </mxGeometry>
                </mxCell>
                <mxCell id="72" value="Have An Account" style="rhombus;whiteSpace=wrap;html=1;fontColor=#000000;fillColor=#ffffc0;strokeColor=#ff0000;rounded=0;" parent="1" vertex="1">
                    <mxGeometry x="990" y="130" width="120" height="50" as="geometry"/>
                </mxCell>
                <mxCell id="130" style="edgeStyle=none;html=1;exitX=0.5;exitY=1;exitDx=0;exitDy=0;entryX=0.5;entryY=1;entryDx=0;entryDy=0;" parent="1" source="73" target="72" edge="1">
                    <mxGeometry relative="1" as="geometry">
                        <Array as="points">
                            <mxPoint x="950" y="310"/>
                            <mxPoint x="1050" y="310"/>
                            <mxPoint x="1050" y="260"/>
                        </Array>
                    </mxGeometry>
                </mxCell>
                <mxCell id="73" value="Register" style="rounded=0;whiteSpace=wrap;html=1;arcSize=40;fontColor=#000000;fillColor=#ffffc0;strokeColor=#ff0000;" parent="1" vertex="1">
                    <mxGeometry x="890" y="240" width="120" height="40" as="geometry"/>
                </mxCell>
                <mxCell id="83" style="edgeStyle=none;html=1;exitX=0.5;exitY=1;exitDx=0;exitDy=0;" parent="1" source="81" edge="1">
                    <mxGeometry relative="1" as="geometry">
                        <mxPoint x="1040" y="730" as="targetPoint"/>
                    </mxGeometry>
                </mxCell>
                <mxCell id="81" value="Shop&amp;nbsp;" style="rounded=0;whiteSpace=wrap;html=1;arcSize=40;fontColor=#000000;fillColor=#ffffc0;strokeColor=#ff0000;" parent="1" vertex="1">
                    <mxGeometry x="980" y="580" width="120" height="40" as="geometry"/>
                </mxCell>
                <mxCell id="85" style="edgeStyle=none;html=1;exitX=0;exitY=0.5;exitDx=0;exitDy=0;exitPerimeter=0;" parent="1" edge="1">
                    <mxGeometry relative="1" as="geometry">
                        <mxPoint x="854.9523809523807" y="1025" as="targetPoint"/>
                        <mxPoint x="855" y="910" as="sourcePoint"/>
                    </mxGeometry>
                </mxCell>
                <mxCell id="86" style="edgeStyle=none;html=1;exitX=0.484;exitY=0.543;exitDx=0;exitDy=0;exitPerimeter=0;entryX=0.5;entryY=0;entryDx=0;entryDy=0;" parent="1" target="84" edge="1">
                    <mxGeometry relative="1" as="geometry">
                        <mxPoint x="1043.7600000000002" y="910.4300000000003" as="sourcePoint"/>
                    </mxGeometry>
                </mxCell>
                <mxCell id="87" style="edgeStyle=none;html=1;exitX=1;exitY=0.5;exitDx=0;exitDy=0;exitPerimeter=0;" parent="1" edge="1">
                    <mxGeometry relative="1" as="geometry">
                        <mxPoint x="1244.9523809523807" y="1025" as="targetPoint"/>
                        <mxPoint x="1245" y="910" as="sourcePoint"/>
                    </mxGeometry>
                </mxCell>
                <mxCell id="82" value="" style="shape=line;html=1;strokeWidth=6;strokeColor=#ff0000;rounded=0;" parent="1" vertex="1">
                    <mxGeometry x="850" y="900" width="390" height="10" as="geometry"/>
                </mxCell>
                <mxCell id="92" style="edgeStyle=none;html=1;exitX=0.5;exitY=1;exitDx=0;exitDy=0;entryX=0.492;entryY=0.76;entryDx=0;entryDy=0;entryPerimeter=0;" parent="1" source="84" target="90" edge="1">
                    <mxGeometry relative="1" as="geometry"/>
                </mxCell>
                <mxCell id="84" value="Women" style="rounded=0;whiteSpace=wrap;html=1;arcSize=40;fontColor=#000000;fillColor=#ffffc0;strokeColor=#ff0000;" parent="1" vertex="1">
                    <mxGeometry x="985" y="1025" width="120" height="40" as="geometry"/>
                </mxCell>
                <mxCell id="93" style="edgeStyle=none;html=1;exitX=0.598;exitY=0.975;exitDx=0;exitDy=0;entryX=1;entryY=0.5;entryDx=0;entryDy=0;entryPerimeter=0;exitPerimeter=0;" parent="1" source="88" target="90" edge="1">
                    <mxGeometry relative="1" as="geometry">
                        <mxPoint x="1245" y="1175" as="targetPoint"/>
                    </mxGeometry>
                </mxCell>
                <mxCell id="88" value="Kids" style="rounded=0;whiteSpace=wrap;html=1;arcSize=40;fontColor=#000000;fillColor=#ffffc0;strokeColor=#ff0000;" parent="1" vertex="1">
                    <mxGeometry x="1175" y="1025" width="120" height="40" as="geometry"/>
                </mxCell>
                <mxCell id="91" style="edgeStyle=none;html=1;exitX=0.5;exitY=1;exitDx=0;exitDy=0;entryX=0;entryY=0.5;entryDx=0;entryDy=0;entryPerimeter=0;" parent="1" source="89" target="90" edge="1">
                    <mxGeometry relative="1" as="geometry"/>
                </mxCell>
                <mxCell id="89" value="Men" style="rounded=0;whiteSpace=wrap;html=1;arcSize=40;fontColor=#000000;fillColor=#ffffc0;strokeColor=#ff0000;" parent="1" vertex="1">
                    <mxGeometry x="800" y="1025" width="120" height="40" as="geometry"/>
                </mxCell>
                <mxCell id="95" style="edgeStyle=none;html=1;exitX=0.492;exitY=0.352;exitDx=0;exitDy=0;exitPerimeter=0;entryX=0.534;entryY=-0.071;entryDx=0;entryDy=0;entryPerimeter=0;" parent="1" source="90" target="111" edge="1">
                    <mxGeometry relative="1" as="geometry">
                        <mxPoint x="2370" y="1320" as="targetPoint"/>
                    </mxGeometry>
                </mxCell>
                <mxCell id="90" value="" style="shape=line;html=1;strokeWidth=6;strokeColor=#ff0000;rounded=0;" parent="1" vertex="1">
                    <mxGeometry x="855" y="1175" width="390" height="10" as="geometry"/>
                </mxCell>
                <mxCell id="122" style="edgeStyle=none;html=1;exitX=0;exitY=0.5;exitDx=0;exitDy=0;entryX=0.337;entryY=0.615;entryDx=0;entryDy=0;entryPerimeter=0;" parent="1" source="94" target="82" edge="1">
                    <mxGeometry relative="1" as="geometry">
                        <Array as="points">
                            <mxPoint x="740" y="1520"/>
                            <mxPoint x="740" y="1150"/>
                            <mxPoint x="740" y="850"/>
                            <mxPoint x="981" y="850"/>
                        </Array>
                    </mxGeometry>
                </mxCell>
                <mxCell id="125" style="edgeStyle=none;html=1;exitX=1;exitY=0.5;exitDx=0;exitDy=0;entryX=1;entryY=0.5;entryDx=0;entryDy=0;" parent="1" source="100" target="81" edge="1">
                    <mxGeometry relative="1" as="geometry">
                        <Array as="points">
                            <mxPoint x="1700" y="1755"/>
                            <mxPoint x="1700" y="1605"/>
                            <mxPoint x="1700" y="1450"/>
                            <mxPoint x="1690" y="850"/>
                            <mxPoint x="1690" y="600"/>
                            <mxPoint x="1220" y="600"/>
                        </Array>
                    </mxGeometry>
                </mxCell>
                <mxCell id="151" style="edgeStyle=none;html=1;exitX=0.5;exitY=1;exitDx=0;exitDy=0;entryX=0.5;entryY=0;entryDx=0;entryDy=0;" edge="1" parent="1" source="94" target="150">
                    <mxGeometry relative="1" as="geometry">
                        <Array as="points">
                            <mxPoint x="1030" y="1560"/>
                            <mxPoint x="1600" y="1560"/>
                        </Array>
                    </mxGeometry>
                </mxCell>
                <mxCell id="94" value="Add to Cart" style="rhombus;whiteSpace=wrap;html=1;fontColor=#000000;fillColor=#ffffc0;strokeColor=#ff0000;rounded=0;" parent="1" vertex="1">
                    <mxGeometry x="975" y="1490" width="110" height="50" as="geometry"/>
                </mxCell>
                <mxCell id="98" value="Dont Add to Cart" style="text;html=1;strokeColor=none;fillColor=none;align=center;verticalAlign=middle;whiteSpace=wrap;rounded=0;" parent="1" vertex="1">
                    <mxGeometry x="870" y="1470" width="100" height="30" as="geometry"/>
                </mxCell>
                <mxCell id="99" value="Add to Cart" style="text;html=1;strokeColor=none;fillColor=none;align=center;verticalAlign=middle;whiteSpace=wrap;rounded=0;" parent="1" vertex="1">
                    <mxGeometry x="1100" y="1520" width="100" height="30" as="geometry"/>
                </mxCell>
                <mxCell id="157" style="edgeStyle=none;html=1;exitX=0.5;exitY=1;exitDx=0;exitDy=0;entryX=0.5;entryY=0;entryDx=0;entryDy=0;" edge="1" parent="1" source="100" target="156">
                    <mxGeometry relative="1" as="geometry">
                        <Array as="points">
                            <mxPoint x="1035" y="1800"/>
                            <mxPoint x="1600" y="1810"/>
                        </Array>
                    </mxGeometry>
                </mxCell>
                <mxCell id="100" value="Pay" style="rhombus;whiteSpace=wrap;html=1;fontColor=#000000;fillColor=#ffffc0;strokeColor=#ff0000;rounded=0;" parent="1" vertex="1">
                    <mxGeometry x="980" y="1730" width="110" height="50" as="geometry"/>
                </mxCell>
                <mxCell id="104" value="Cancle Order" style="text;html=1;strokeColor=none;fillColor=none;align=center;verticalAlign=middle;whiteSpace=wrap;rounded=0;" parent="1" vertex="1">
                    <mxGeometry x="1090" y="1720" width="100" height="30" as="geometry"/>
                </mxCell>
                <mxCell id="105" value="Place Order" style="text;html=1;strokeColor=none;fillColor=none;align=center;verticalAlign=middle;whiteSpace=wrap;rounded=0;" parent="1" vertex="1">
                    <mxGeometry x="1130" y="1770" width="100" height="30" as="geometry"/>
                </mxCell>
                <mxCell id="106" value="Customer" style="shape=umlFrame;whiteSpace=wrap;html=1;pointerEvents=0;rounded=0;" parent="1" vertex="1">
                    <mxGeometry x="720" width="610" height="2070" as="geometry"/>
                </mxCell>
                <mxCell id="147" style="edgeStyle=none;html=1;exitX=0.5;exitY=1;exitDx=0;exitDy=0;entryX=0.5;entryY=0;entryDx=0;entryDy=0;" edge="1" parent="1" source="111" target="144">
                    <mxGeometry relative="1" as="geometry">
                        <Array as="points">
                            <mxPoint x="1040" y="1340"/>
                            <mxPoint x="1610" y="1340"/>
                        </Array>
                    </mxGeometry>
                </mxCell>
                <mxCell id="111" value="Veiw Produt Details" style="rounded=0;whiteSpace=wrap;html=1;arcSize=40;fontColor=#000000;fillColor=#ffffc0;strokeColor=#ff0000;" parent="1" vertex="1">
                    <mxGeometry x="980" y="1280" width="120" height="40" as="geometry"/>
                </mxCell>
                <mxCell id="107" value="Database" style="shape=umlFrame;whiteSpace=wrap;html=1;pointerEvents=0;rounded=0;width=40;height=20;" parent="1" vertex="1">
                    <mxGeometry x="1330" y="-10" width="530" height="2080" as="geometry"/>
                </mxCell>
                <mxCell id="139" style="edgeStyle=none;html=1;exitX=0.5;exitY=1;exitDx=0;exitDy=0;" edge="1" parent="1" source="138" target="82">
                    <mxGeometry relative="1" as="geometry"/>
                </mxCell>
                <mxCell id="141" style="edgeStyle=none;html=1;exitX=0;exitY=0.5;exitDx=0;exitDy=0;entryX=0;entryY=0.5;entryDx=0;entryDy=0;" edge="1" parent="1" source="138" target="81">
                    <mxGeometry relative="1" as="geometry">
                        <Array as="points">
                            <mxPoint x="930" y="755"/>
                            <mxPoint x="930" y="600"/>
                        </Array>
                    </mxGeometry>
                </mxCell>
                <mxCell id="138" value="View Products" style="rhombus;whiteSpace=wrap;html=1;fontColor=#000000;fillColor=#ffffc0;strokeColor=#ff0000;rounded=0;" vertex="1" parent="1">
                    <mxGeometry x="985" y="730" width="110" height="50" as="geometry"/>
                </mxCell>
                <mxCell id="140" value="Yes" style="text;html=1;strokeColor=none;fillColor=none;align=center;verticalAlign=middle;whiteSpace=wrap;rounded=0;" vertex="1" parent="1">
                    <mxGeometry x="1045" y="790" width="100" height="30" as="geometry"/>
                </mxCell>
                <mxCell id="142" value="No" style="text;html=1;strokeColor=none;fillColor=none;align=center;verticalAlign=middle;whiteSpace=wrap;rounded=0;" vertex="1" parent="1">
                    <mxGeometry x="910" y="720" width="100" height="30" as="geometry"/>
                </mxCell>
                <mxCell id="148" style="edgeStyle=none;html=1;exitX=0.5;exitY=1;exitDx=0;exitDy=0;entryX=0.5;entryY=0;entryDx=0;entryDy=0;" edge="1" parent="1" source="144" target="94">
                    <mxGeometry relative="1" as="geometry">
                        <Array as="points">
                            <mxPoint x="1610" y="1440"/>
                            <mxPoint x="1030" y="1440"/>
                        </Array>
                    </mxGeometry>
                </mxCell>
                <mxCell id="144" value="Get Product Details" style="rounded=0;whiteSpace=wrap;html=1;arcSize=40;fontColor=#000000;fillColor=#ffffc0;strokeColor=#ff0000;" vertex="1" parent="1">
                    <mxGeometry x="1550" y="1370" width="120" height="40" as="geometry"/>
                </mxCell>
                <mxCell id="155" style="edgeStyle=none;html=1;exitX=0.5;exitY=1;exitDx=0;exitDy=0;entryX=0.5;entryY=0;entryDx=0;entryDy=0;" edge="1" parent="1" source="150" target="100">
                    <mxGeometry relative="1" as="geometry">
                        <Array as="points">
                            <mxPoint x="1600" y="1680"/>
                            <mxPoint x="1035" y="1680"/>
                        </Array>
                    </mxGeometry>
                </mxCell>
                <mxCell id="150" value="Update Databse Cart" style="rounded=0;whiteSpace=wrap;html=1;arcSize=40;fontColor=#000000;fillColor=#ffffc0;strokeColor=#ff0000;" vertex="1" parent="1">
                    <mxGeometry x="1540" y="1600" width="120" height="40" as="geometry"/>
                </mxCell>
                <mxCell id="158" style="edgeStyle=none;html=1;exitX=0.5;exitY=1;exitDx=0;exitDy=0;entryX=0.5;entryY=0;entryDx=0;entryDy=0;" edge="1" parent="1" source="156" target="20">
                    <mxGeometry relative="1" as="geometry">
                        <Array as="points">
                            <mxPoint x="1600" y="1920"/>
                            <mxPoint x="1040" y="1920"/>
                        </Array>
                    </mxGeometry>
                </mxCell>
                <mxCell id="156" value="Update Databse payment" style="rounded=0;whiteSpace=wrap;html=1;arcSize=40;fontColor=#000000;fillColor=#ffffc0;strokeColor=#ff0000;" vertex="1" parent="1">
                    <mxGeometry x="1540" y="1850" width="120" height="40" as="geometry"/>
                </mxCell>
            </root>
        </mxGraphModel>
    </diagram>
</mxfile>